<svg width="34" height="40" viewBox="0 0 34 40" fill="none" xmlns="http://www.w3.org/2000/svg">
<path d="M0.939338 26.9393C0.353551 27.5251 0.353551 28.4749 0.939338 29.0607L10.4853 38.6066C11.0711 39.1924 12.0208 39.1924 12.6066 38.6066C13.1924 38.0208 13.1924 37.0711 12.6066 36.4853L4.12132 28L12.6066 19.5147C13.1924 18.9289 13.1924 17.9792 12.6066 17.3934C12.0208 16.8076 11.0711 16.8076 10.4853 17.3934L0.939338 26.9393ZM32 26.5L2 26.5V29.5L32 29.5V26.5Z" fill="#BB9F89"/>
<path d="M33.0607 13.0607C33.6464 12.4749 33.6464 11.5251 33.0607 10.9393L23.5147 1.3934C22.9289 0.807612 21.9792 0.807612 21.3934 1.3934C20.8076 1.97918 20.8076 2.92893 21.3934 3.51472L29.8787 12L21.3934 20.4853C20.8076 21.0711 20.8076 22.0208 21.3934 22.6066C21.9792 23.1924 22.9289 23.1924 23.5147 22.6066L33.0607 13.0607ZM2 13.5H32V10.5H2V13.5Z" fill="#BB9F89"/>
</svg>
